<?xml version="1.0" encoding="UTF-8"?>
<svg xmlns="http://www.w3.org/2000/svg" xmlns:xlink="http://www.w3.org/1999/xlink" width="1280" height="720" viewBox="0 0 1280 720">
<defs>
<g>
<g id="glyph-0-0">
<path d="M 0.78125 0 L 0.78125 -0.984375 L 2.335938 -0.984375 L 2.335938 -11.164062 L 0.78125 -11.164062 L 0.78125 -12.148438 L 7.699219 -12.148438 C 9.050781 -12.148438 10.125 -11.828125 10.921875 -11.1875 C 11.71875 -10.542969 12.117188 -9.679688 12.117188 -8.601562 C 12.117188 -7.515625 11.71875 -6.648438 10.917969 -6 C 10.117188 -5.351562 9.042969 -5.027344 7.699219 -5.027344 L 5.46875 -5.027344 L 5.46875 -0.984375 L 7.429688 -0.984375 L 7.429688 0 L 0.78125 0 M 5.46875 -6.015625 L 6.378906 -6.015625 C 7.085938 -6.015625 7.648438 -6.25 8.070312 -6.71875 C 8.488281 -7.1875 8.699219 -7.816406 8.699219 -8.601562 C 8.699219 -9.382812 8.492188 -10.003906 8.074219 -10.46875 C 7.65625 -10.933594 7.089844 -11.164062 6.378906 -11.164062 L 5.46875 -11.164062 Z "/>
</g>
<g id="glyph-0-1">
<path d="M -0.128906 0 L -0.128906 -0.984375 L 0.863281 -0.984375 L 5.4375 -12.148438 L 7.382812 -12.148438 L 11.960938 -0.984375 L 13.117188 -0.984375 L 13.117188 0 L 7.429688 0 L 7.429688 -0.984375 L 8.617188 -0.984375 L 7.617188 -3.464844 L 3.050781 -3.464844 L 2.035156 -0.984375 L 3.484375 -0.984375 L 3.484375 0 L -0.128906 0 M 3.449219 -4.453125 L 7.21875 -4.453125 L 5.347656 -9.097656 Z "/>
</g>
<g id="glyph-0-2">
<path d="M 1.285156 -0.585938 L 1.285156 -3.464844 L 2.320312 -3.464844 C 2.476562 -2.554688 2.847656 -1.875 3.433594 -1.425781 C 4.019531 -0.972656 4.832031 -0.75 5.867188 -0.75 C 6.707031 -0.75 7.347656 -0.910156 7.789062 -1.230469 C 8.226562 -1.550781 8.445312 -2.019531 8.445312 -2.636719 C 8.445312 -3.125 8.296875 -3.503906 8 -3.777344 C 7.703125 -4.046875 7.085938 -4.300781 6.152344 -4.53125 L 4.328125 -4.980469 C 3.140625 -5.285156 2.304688 -5.707031 1.824219 -6.246094 C 1.339844 -6.785156 1.097656 -7.554688 1.097656 -8.554688 C 1.097656 -9.757812 1.5 -10.695312 2.300781 -11.363281 C 3.097656 -12.035156 4.222656 -12.371094 5.664062 -12.371094 C 6.375 -12.371094 7.113281 -12.308594 7.882812 -12.191406 C 8.648438 -12.070312 9.445312 -11.890625 10.269531 -11.652344 L 10.269531 -8.96875 L 9.238281 -8.96875 C 9.078125 -9.804688 8.734375 -10.414062 8.203125 -10.804688 C 7.671875 -11.191406 6.914062 -11.386719 5.933594 -11.386719 C 5.128906 -11.386719 4.523438 -11.246094 4.113281 -10.964844 C 3.703125 -10.6875 3.5 -10.269531 3.5 -9.714844 C 3.5 -9.210938 3.640625 -8.828125 3.921875 -8.566406 C 4.203125 -8.300781 4.894531 -8.03125 5.996094 -7.746094 L 7.820312 -7.300781 C 8.949219 -7.019531 9.765625 -6.578125 10.273438 -5.980469 C 10.78125 -5.382812 11.035156 -4.5625 11.035156 -3.515625 C 11.035156 -2.289062 10.613281 -1.359375 9.765625 -0.71875 C 8.917969 -0.0820312 7.675781 0.234375 6.03125 0.234375 C 5.238281 0.234375 4.453125 0.167969 3.671875 0.03125 C 2.890625 -0.101562 2.09375 -0.308594 1.285156 -0.585938 Z "/>
</g>
<g id="glyph-0-3">
<path d="M 0.78125 0 L 0.78125 -0.984375 L 2.335938 -0.984375 L 2.335938 -11.164062 L 0.78125 -11.164062 L 0.78125 -12.148438 L 11.703125 -12.148438 L 11.703125 -9.285156 L 10.578125 -9.285156 L 10.578125 -11.035156 L 5.46875 -11.035156 L 5.46875 -7.136719 L 8.652344 -7.136719 L 8.652344 -8.683594 L 9.765625 -8.683594 L 9.765625 -4.484375 L 8.652344 -4.484375 L 8.652344 -6.03125 L 5.46875 -6.03125 L 5.46875 -1.113281 L 10.734375 -1.113281 L 10.734375 -2.863281 L 11.847656 -2.863281 L 11.847656 0 Z "/>
</g>
<g id="glyph-0-4">
<path d="M 5.46875 -0.984375 L 6.601562 -0.984375 C 7.871094 -0.984375 8.796875 -1.390625 9.386719 -2.207031 C 9.976562 -3.019531 10.269531 -4.3125 10.269531 -6.085938 C 10.269531 -7.851562 9.976562 -9.136719 9.390625 -9.949219 C 8.804688 -10.761719 7.875 -11.164062 6.601562 -11.164062 L 5.46875 -11.164062 L 5.46875 -0.984375 M 0.78125 0 L 0.78125 -0.984375 L 2.335938 -0.984375 L 2.335938 -11.164062 L 0.78125 -11.164062 L 0.78125 -12.148438 L 7.015625 -12.148438 C 9.195312 -12.148438 10.863281 -11.628906 12.019531 -10.585938 C 13.175781 -9.546875 13.753906 -8.046875 13.753906 -6.085938 C 13.753906 -4.117188 13.175781 -2.609375 12.015625 -1.566406 C 10.859375 -0.523438 9.191406 0 7.015625 0 Z "/>
</g>
</g>
</defs>
<g fill="rgb(51.372549%, 75.686275%, 40.392157%)" fill-opacity="1">
<use xlink:href="#glyph-0-0" x="30" y="35.648438"/>
<use xlink:href="#glyph-0-1" x="41" y="35.648438"/>
<use xlink:href="#glyph-0-2" x="54" y="35.648438"/>
<use xlink:href="#glyph-0-2" x="66" y="35.648438"/>
<use xlink:href="#glyph-0-3" x="78" y="35.648438"/>
<use xlink:href="#glyph-0-4" x="91" y="35.648438"/>
</g>
</svg>
