<?xml version="1.0" encoding="UTF-8"?>
<svg xmlns="http://www.w3.org/2000/svg" xmlns:xlink="http://www.w3.org/1999/xlink" width="854" height="480" viewBox="0 0 854 480">
<defs>
<g>
<g id="glyph-0-0">
<path d="M 0.597656 -3.066406 L 1.789062 -3.171875 C 1.847656 -2.691406 1.976562 -2.300781 2.183594 -1.996094 C 2.390625 -1.6875 2.710938 -1.441406 3.144531 -1.253906 C 3.578125 -1.0625 4.066406 -0.96875 4.609375 -0.96875 C 5.089844 -0.96875 5.515625 -1.042969 5.886719 -1.183594 C 6.253906 -1.328125 6.527344 -1.523438 6.707031 -1.773438 C 6.890625 -2.023438 6.980469 -2.296875 6.980469 -2.589844 C 6.980469 -2.890625 6.890625 -3.152344 6.71875 -3.375 C 6.546875 -3.597656 6.257812 -3.785156 5.859375 -3.9375 C 5.601562 -4.039062 5.035156 -4.195312 4.160156 -4.40625 C 3.285156 -4.613281 2.667969 -4.8125 2.316406 -5 C 1.863281 -5.238281 1.523438 -5.535156 1.296875 -5.886719 C 1.074219 -6.242188 0.964844 -6.636719 0.964844 -7.078125 C 0.964844 -7.558594 1.101562 -8.007812 1.375 -8.429688 C 1.648438 -8.847656 2.046875 -9.164062 2.570312 -9.382812 C 3.097656 -9.597656 3.679688 -9.707031 4.324219 -9.707031 C 5.03125 -9.707031 5.652344 -9.59375 6.195312 -9.367188 C 6.734375 -9.136719 7.152344 -8.800781 7.441406 -8.359375 C 7.730469 -7.917969 7.886719 -7.414062 7.910156 -6.855469 L 6.699219 -6.765625 C 6.632812 -7.367188 6.414062 -7.824219 6.039062 -8.132812 C 5.664062 -8.441406 5.109375 -8.59375 4.375 -8.59375 C 3.609375 -8.59375 3.054688 -8.453125 2.703125 -8.171875 C 2.355469 -7.894531 2.179688 -7.554688 2.179688 -7.160156 C 2.179688 -6.820312 2.304688 -6.535156 2.550781 -6.316406 C 2.796875 -6.09375 3.429688 -5.867188 4.457031 -5.632812 C 5.484375 -5.402344 6.1875 -5.199219 6.570312 -5.027344 C 7.125 -4.769531 7.535156 -4.445312 7.800781 -4.054688 C 8.0625 -3.660156 8.195312 -3.207031 8.195312 -2.695312 C 8.195312 -2.1875 8.050781 -1.707031 7.761719 -1.257812 C 7.46875 -0.808594 7.050781 -0.460938 6.507812 -0.210938 C 5.960938 0.0390625 5.347656 0.164062 4.667969 0.164062 C 3.804688 0.164062 3.082031 0.0351562 2.496094 -0.214844 C 1.914062 -0.464844 1.453125 -0.84375 1.125 -1.351562 C 0.789062 -1.855469 0.617188 -2.429688 0.597656 -3.066406 Z "/>
</g>
<g id="glyph-0-1">
<path d="M 5.390625 -2.53125 L 6.542969 -2.382812 C 6.417969 -1.589844 6.09375 -0.964844 5.574219 -0.515625 C 5.058594 -0.0703125 4.421875 0.15625 3.664062 0.15625 C 2.71875 0.15625 1.957031 -0.152344 1.382812 -0.769531 C 0.808594 -1.390625 0.519531 -2.277344 0.519531 -3.429688 C 0.519531 -4.175781 0.644531 -4.832031 0.890625 -5.390625 C 1.140625 -5.949219 1.515625 -6.371094 2.023438 -6.648438 C 2.527344 -6.929688 3.078125 -7.070312 3.671875 -7.070312 C 4.421875 -7.070312 5.035156 -6.878906 5.515625 -6.5 C 5.992188 -6.121094 6.296875 -5.582031 6.433594 -4.882812 L 5.292969 -4.707031 C 5.183594 -5.171875 4.992188 -5.519531 4.71875 -5.753906 C 4.441406 -5.988281 4.109375 -6.105469 3.71875 -6.105469 C 3.128906 -6.105469 2.648438 -5.894531 2.277344 -5.472656 C 1.910156 -5.046875 1.726562 -4.378906 1.726562 -3.464844 C 1.726562 -2.535156 1.902344 -1.859375 2.257812 -1.4375 C 2.613281 -1.019531 3.078125 -0.808594 3.652344 -0.808594 C 4.113281 -0.808594 4.496094 -0.949219 4.804688 -1.230469 C 5.113281 -1.511719 5.308594 -1.945312 5.390625 -2.53125 Z "/>
</g>
<g id="glyph-0-2">
<path d="M 5.613281 -2.226562 L 6.824219 -2.078125 C 6.632812 -1.371094 6.277344 -0.820312 5.761719 -0.429688 C 5.246094 -0.0390625 4.585938 0.15625 3.78125 0.15625 C 2.769531 0.15625 1.96875 -0.15625 1.375 -0.777344 C 0.785156 -1.402344 0.488281 -2.273438 0.488281 -3.398438 C 0.488281 -4.5625 0.789062 -5.464844 1.386719 -6.105469 C 1.984375 -6.75 2.761719 -7.070312 3.71875 -7.070312 C 4.640625 -7.070312 5.398438 -6.753906 5.984375 -6.125 C 6.570312 -5.496094 6.863281 -4.613281 6.863281 -3.46875 C 6.863281 -3.402344 6.859375 -3.296875 6.855469 -3.15625 L 1.699219 -3.15625 C 1.742188 -2.398438 1.957031 -1.816406 2.34375 -1.414062 C 2.730469 -1.007812 3.210938 -0.808594 3.789062 -0.808594 C 4.21875 -0.808594 4.585938 -0.921875 4.890625 -1.144531 C 5.191406 -1.371094 5.433594 -1.730469 5.613281 -2.226562 M 1.765625 -4.121094 L 5.625 -4.121094 C 5.574219 -4.703125 5.425781 -5.140625 5.183594 -5.429688 C 4.808594 -5.882812 4.324219 -6.105469 3.730469 -6.105469 C 3.191406 -6.105469 2.738281 -5.925781 2.375 -5.566406 C 2.007812 -5.207031 1.804688 -4.722656 1.765625 -4.121094 Z "/>
</g>
<g id="glyph-0-3">
<path d="M 0.878906 0 L 0.878906 -6.914062 L 1.933594 -6.914062 L 1.933594 -5.929688 C 2.441406 -6.691406 3.175781 -7.070312 4.132812 -7.070312 C 4.550781 -7.070312 4.933594 -6.996094 5.28125 -6.84375 C 5.632812 -6.695312 5.894531 -6.5 6.066406 -6.257812 C 6.242188 -6.011719 6.363281 -5.726562 6.433594 -5.390625 C 6.476562 -5.171875 6.496094 -4.792969 6.496094 -4.25 L 6.496094 0 L 5.324219 0 L 5.324219 -4.207031 C 5.324219 -4.683594 5.28125 -5.039062 5.1875 -5.277344 C 5.097656 -5.511719 4.9375 -5.703125 4.703125 -5.84375 C 4.472656 -5.984375 4.199219 -6.054688 3.886719 -6.054688 C 3.386719 -6.054688 2.957031 -5.894531 2.59375 -5.578125 C 2.230469 -5.261719 2.050781 -4.660156 2.050781 -3.777344 L 2.050781 0 Z "/>
</g>
<g id="glyph-0-4">
</g>
<g id="glyph-0-5">
<path d="M 6.710938 -1.125 L 6.710938 0 L 0.402344 0 C 0.394531 -0.28125 0.441406 -0.554688 0.539062 -0.8125 C 0.699219 -1.242188 0.957031 -1.667969 1.3125 -2.082031 C 1.664062 -2.5 2.175781 -2.980469 2.84375 -3.527344 C 3.882812 -4.378906 4.582031 -5.054688 4.949219 -5.550781 C 5.3125 -6.046875 5.496094 -6.515625 5.496094 -6.960938 C 5.496094 -7.425781 5.328125 -7.816406 4.996094 -8.132812 C 4.664062 -8.453125 4.230469 -8.613281 3.699219 -8.613281 C 3.132812 -8.613281 2.683594 -8.445312 2.34375 -8.105469 C 2.003906 -7.765625 1.832031 -7.296875 1.828125 -6.699219 L 0.625 -6.824219 C 0.707031 -7.722656 1.019531 -8.40625 1.554688 -8.875 C 2.09375 -9.347656 2.816406 -9.582031 3.722656 -9.582031 C 4.640625 -9.582031 5.363281 -9.328125 5.898438 -8.820312 C 6.433594 -8.3125 6.699219 -7.683594 6.699219 -6.933594 C 6.699219 -6.550781 6.621094 -6.175781 6.464844 -5.808594 C 6.308594 -5.4375 6.050781 -5.050781 5.6875 -4.640625 C 5.324219 -4.234375 4.722656 -3.675781 3.878906 -2.960938 C 3.175781 -2.371094 2.726562 -1.972656 2.527344 -1.761719 C 2.328125 -1.550781 2.160156 -1.339844 2.03125 -1.125 Z "/>
</g>
<g id="glyph-0-6">
<path d="M -0.0195312 0 L 3.644531 -9.542969 L 5.007812 -9.542969 L 8.914062 0 L 7.472656 0 L 6.359375 -2.890625 L 2.371094 -2.890625 L 1.320312 0 L -0.0195312 0 M 2.734375 -3.917969 L 5.96875 -3.917969 L 4.972656 -6.5625 C 4.671875 -7.367188 4.445312 -8.023438 4.296875 -8.542969 C 4.175781 -7.929688 4.003906 -7.320312 3.78125 -6.71875 Z "/>
</g>
<g id="glyph-0-7">
<path d="M 1.203125 -5.578125 L 1.203125 -6.914062 L 2.539062 -6.914062 L 2.539062 -5.578125 L 1.203125 -5.578125 M 1.203125 0 L 1.203125 -1.335938 L 2.539062 -1.335938 L 2.539062 0 Z "/>
</g>
<g id="glyph-0-8">
<path d="M 2.695312 0 L 0.164062 -9.542969 L 1.457031 -9.542969 L 2.910156 -3.289062 C 3.066406 -2.632812 3.199219 -1.980469 3.3125 -1.335938 C 3.558594 -2.355469 3.699219 -2.941406 3.742188 -3.097656 L 5.558594 -9.542969 L 7.082031 -9.542969 L 8.449219 -4.714844 C 8.792969 -3.515625 9.039062 -2.390625 9.191406 -1.335938 C 9.3125 -1.9375 9.472656 -2.628906 9.667969 -3.410156 L 11.164062 -9.542969 L 12.433594 -9.542969 L 9.816406 0 L 8.601562 0 L 6.589844 -7.273438 C 6.417969 -7.878906 6.320312 -8.253906 6.289062 -8.390625 C 6.1875 -7.953125 6.097656 -7.582031 6.007812 -7.273438 L 3.984375 0 Z "/>
</g>
<g id="glyph-0-9">
<path d="M 0.878906 0 L 0.878906 -9.542969 L 2.050781 -9.542969 L 2.050781 -6.121094 C 2.597656 -6.753906 3.289062 -7.070312 4.121094 -7.070312 C 4.632812 -7.070312 5.078125 -6.96875 5.457031 -6.765625 C 5.832031 -6.566406 6.101562 -6.285156 6.265625 -5.929688 C 6.429688 -5.574219 6.511719 -5.058594 6.511719 -4.382812 L 6.511719 0 L 5.339844 0 L 5.339844 -4.382812 C 5.339844 -4.96875 5.210938 -5.394531 4.957031 -5.660156 C 4.703125 -5.925781 4.34375 -6.0625 3.878906 -6.0625 C 3.53125 -6.0625 3.207031 -5.972656 2.898438 -5.789062 C 2.59375 -5.609375 2.375 -5.367188 2.246094 -5.058594 C 2.117188 -4.75 2.050781 -4.324219 2.050781 -3.78125 L 2.050781 0 Z "/>
</g>
<g id="glyph-0-10">
<path d="M 0.828125 2.664062 L 0.695312 1.5625 C 0.953125 1.632812 1.175781 1.667969 1.367188 1.667969 C 1.628906 1.667969 1.835938 1.625 1.992188 1.535156 C 2.148438 1.449219 2.277344 1.328125 2.375 1.171875 C 2.449219 1.054688 2.570312 0.765625 2.734375 0.300781 C 2.757812 0.234375 2.789062 0.140625 2.839844 0.0117188 L 0.214844 -6.914062 L 1.476562 -6.914062 L 2.917969 -2.910156 C 3.101562 -2.402344 3.269531 -1.867188 3.417969 -1.308594 C 3.550781 -1.847656 3.714844 -2.371094 3.898438 -2.882812 L 5.378906 -6.914062 L 6.550781 -6.914062 L 3.917969 0.117188 C 3.636719 0.875 3.417969 1.398438 3.261719 1.6875 C 3.054688 2.074219 2.816406 2.355469 2.546875 2.535156 C 2.277344 2.714844 1.957031 2.804688 1.582031 2.804688 C 1.355469 2.804688 1.105469 2.757812 0.828125 2.664062 Z "/>
</g>
<g id="glyph-0-11">
<path d="M 0.886719 -8.195312 L 0.886719 -9.542969 L 2.058594 -9.542969 L 2.058594 -8.195312 L 0.886719 -8.195312 M 0.886719 0 L 0.886719 -6.914062 L 2.058594 -6.914062 L 2.058594 0 Z "/>
</g>
<g id="glyph-0-12">
<path d="M 0.410156 -2.0625 L 1.570312 -2.246094 C 1.632812 -1.78125 1.816406 -1.425781 2.113281 -1.179688 C 2.410156 -0.929688 2.824219 -0.808594 3.359375 -0.808594 C 3.898438 -0.808594 4.296875 -0.917969 4.558594 -1.136719 C 4.816406 -1.355469 4.949219 -1.613281 4.949219 -1.90625 C 4.949219 -2.171875 4.832031 -2.378906 4.601562 -2.53125 C 4.441406 -2.636719 4.042969 -2.769531 3.40625 -2.929688 C 2.546875 -3.148438 1.949219 -3.335938 1.617188 -3.492188 C 1.285156 -3.652344 1.035156 -3.871094 0.863281 -4.148438 C 0.691406 -4.429688 0.605469 -4.738281 0.605469 -5.078125 C 0.605469 -5.386719 0.675781 -5.671875 0.816406 -5.933594 C 0.957031 -6.195312 1.148438 -6.414062 1.394531 -6.589844 C 1.574219 -6.722656 1.824219 -6.835938 2.140625 -6.929688 C 2.453125 -7.023438 2.789062 -7.070312 3.152344 -7.070312 C 3.695312 -7.070312 4.171875 -6.992188 4.578125 -6.835938 C 4.988281 -6.679688 5.292969 -6.46875 5.488281 -6.199219 C 5.683594 -5.933594 5.816406 -5.578125 5.890625 -5.128906 L 4.746094 -4.972656 C 4.695312 -5.328125 4.542969 -5.609375 4.292969 -5.808594 C 4.042969 -6.007812 3.691406 -6.105469 3.234375 -6.105469 C 2.699219 -6.105469 2.3125 -6.019531 2.082031 -5.839844 C 1.851562 -5.660156 1.738281 -5.453125 1.738281 -5.214844 C 1.738281 -5.0625 1.785156 -4.925781 1.882812 -4.804688 C 1.976562 -4.679688 2.125 -4.574219 2.332031 -4.492188 C 2.449219 -4.449219 2.792969 -4.347656 3.367188 -4.191406 C 4.195312 -3.972656 4.773438 -3.789062 5.101562 -3.648438 C 5.429688 -3.507812 5.6875 -3.304688 5.871094 -3.035156 C 6.058594 -2.765625 6.152344 -2.429688 6.152344 -2.03125 C 6.152344 -1.640625 6.039062 -1.273438 5.808594 -0.925781 C 5.582031 -0.582031 5.253906 -0.316406 4.824219 -0.125 C 4.394531 0.0625 3.910156 0.15625 3.367188 0.15625 C 2.46875 0.15625 1.78125 -0.03125 1.3125 -0.402344 C 0.839844 -0.777344 0.539062 -1.332031 0.410156 -2.0625 Z "/>
</g>
<g id="glyph-0-13">
<path d="M 1.027344 0 L 1.027344 -9.542969 L 4.628906 -9.542969 C 5.261719 -9.542969 5.746094 -9.515625 6.082031 -9.453125 C 6.550781 -9.375 6.941406 -9.226562 7.257812 -9.007812 C 7.574219 -8.789062 7.832031 -8.480469 8.023438 -8.085938 C 8.21875 -7.691406 8.3125 -7.257812 8.3125 -6.785156 C 8.3125 -5.972656 8.054688 -5.285156 7.539062 -4.722656 C 7.023438 -4.160156 6.089844 -3.878906 4.738281 -3.878906 L 2.292969 -3.878906 L 2.292969 0 L 1.027344 0 M 2.292969 -5.007812 L 4.757812 -5.007812 C 5.574219 -5.007812 6.15625 -5.160156 6.496094 -5.460938 C 6.839844 -5.765625 7.011719 -6.195312 7.011719 -6.746094 C 7.011719 -7.144531 6.910156 -7.484375 6.707031 -7.769531 C 6.507812 -8.054688 6.242188 -8.242188 5.910156 -8.332031 C 5.699219 -8.390625 5.304688 -8.417969 4.734375 -8.417969 L 2.292969 -8.417969 Z "/>
</g>
<g id="glyph-0-14">
<path d="M 1.027344 0 L 1.027344 -9.542969 L 4.316406 -9.542969 C 5.058594 -9.542969 5.625 -9.5 6.015625 -9.40625 C 6.5625 -9.28125 7.027344 -9.054688 7.414062 -8.722656 C 7.917969 -8.296875 8.296875 -7.753906 8.546875 -7.09375 C 8.792969 -6.429688 8.917969 -5.675781 8.917969 -4.824219 C 8.917969 -4.097656 8.835938 -3.457031 8.664062 -2.898438 C 8.496094 -2.335938 8.277344 -1.875 8.015625 -1.507812 C 7.75 -1.140625 7.460938 -0.851562 7.144531 -0.640625 C 6.832031 -0.429688 6.449219 -0.269531 6.003906 -0.164062 C 5.5625 -0.0546875 5.050781 0 4.472656 0 L 1.027344 0 M 2.292969 -1.125 L 4.328125 -1.125 C 4.957031 -1.125 5.453125 -1.183594 5.808594 -1.300781 C 6.167969 -1.417969 6.453125 -1.585938 6.667969 -1.796875 C 6.964844 -2.097656 7.199219 -2.5 7.367188 -3.003906 C 7.535156 -3.511719 7.617188 -4.125 7.617188 -4.84375 C 7.617188 -5.84375 7.453125 -6.609375 7.125 -7.144531 C 6.796875 -7.679688 6.398438 -8.039062 5.929688 -8.222656 C 5.59375 -8.351562 5.046875 -8.417969 4.296875 -8.417969 L 2.292969 -8.417969 Z "/>
</g>
</g>
</defs>
<g fill="rgb(96.862745%, 85.098039%, 43.529412%)" fill-opacity="1">
<use xlink:href="#glyph-0-0" x="30" y="32.070312"/>
<use xlink:href="#glyph-0-1" x="39" y="32.070312"/>
<use xlink:href="#glyph-0-2" x="46" y="32.070312"/>
<use xlink:href="#glyph-0-3" x="53" y="32.070312"/>
<use xlink:href="#glyph-0-2" x="60" y="32.070312"/>
<use xlink:href="#glyph-0-4" x="67" y="32.070312"/>
<use xlink:href="#glyph-0-5" x="71" y="32.070312"/>
<use xlink:href="#glyph-0-6" x="78" y="32.070312"/>
<use xlink:href="#glyph-0-7" x="87" y="32.070312"/>
<use xlink:href="#glyph-0-4" x="91" y="32.070312"/>
<use xlink:href="#glyph-0-8" x="95" y="32.070312"/>
<use xlink:href="#glyph-0-9" x="108" y="32.070312"/>
<use xlink:href="#glyph-0-10" x="115" y="32.070312"/>
<use xlink:href="#glyph-0-4" x="122" y="32.070312"/>
<use xlink:href="#glyph-0-6" x="125" y="32.070312"/>
<use xlink:href="#glyph-0-4" x="133" y="32.070312"/>
<use xlink:href="#glyph-0-11" x="137" y="32.070312"/>
<use xlink:href="#glyph-0-12" x="140" y="32.070312"/>
<use xlink:href="#glyph-0-4" x="147" y="32.070312"/>
<use xlink:href="#glyph-0-0" x="151" y="32.070312"/>
<use xlink:href="#glyph-0-13" x="160" y="32.070312"/>
<use xlink:href="#glyph-0-14" x="169" y="32.070312"/>
</g>
</svg>
