<?xml version="1.0" encoding="UTF-8"?>
<svg xmlns="http://www.w3.org/2000/svg" xmlns:xlink="http://www.w3.org/1999/xlink" width="854" height="480" viewBox="0 0 854 480">
<defs>
<g>
<g id="glyph-0-0">
<path d="M 0.851562 0 L 0.851562 -9.542969 L 2.023438 -9.542969 L 2.023438 0 Z "/>
</g>
<g id="glyph-0-1">
<path d="M -0.203125 2.648438 L -0.203125 1.804688 L 7.566406 1.804688 L 7.566406 2.648438 Z "/>
</g>
<g id="glyph-0-2">
<path d="M 0.871094 -8.183594 L 0.871094 -9.542969 L 2.042969 -9.542969 L 2.042969 -8.183594 L 0.871094 -8.183594 M -0.613281 2.683594 L -0.390625 1.6875 C -0.15625 1.746094 0.0273438 1.777344 0.164062 1.777344 C 0.402344 1.777344 0.578125 1.699219 0.695312 1.539062 C 0.8125 1.382812 0.871094 0.984375 0.871094 0.351562 L 0.871094 -6.914062 L 2.042969 -6.914062 L 2.042969 0.378906 C 2.042969 1.226562 1.933594 1.820312 1.710938 2.15625 C 1.429688 2.589844 0.960938 2.804688 0.304688 2.804688 C -0.0117188 2.804688 -0.316406 2.765625 -0.613281 2.683594 Z "/>
</g>
<g id="glyph-0-3">
</g>
<g id="glyph-0-4">
<path d="M 7.042969 -5.613281 L 0.742188 -5.613281 L 0.742188 -6.707031 L 7.042969 -6.707031 L 7.042969 -5.613281 M 7.042969 -2.714844 L 0.742188 -2.714844 L 0.742188 -3.808594 L 7.042969 -3.808594 Z "/>
</g>
<g id="glyph-0-5">
<path d="M 0.410156 -2.0625 L 1.570312 -2.246094 C 1.632812 -1.78125 1.816406 -1.425781 2.113281 -1.179688 C 2.410156 -0.929688 2.824219 -0.808594 3.359375 -0.808594 C 3.898438 -0.808594 4.296875 -0.917969 4.558594 -1.136719 C 4.816406 -1.355469 4.949219 -1.613281 4.949219 -1.90625 C 4.949219 -2.171875 4.832031 -2.378906 4.601562 -2.53125 C 4.441406 -2.636719 4.042969 -2.769531 3.40625 -2.929688 C 2.546875 -3.148438 1.949219 -3.335938 1.617188 -3.492188 C 1.285156 -3.652344 1.035156 -3.871094 0.863281 -4.148438 C 0.691406 -4.429688 0.605469 -4.738281 0.605469 -5.078125 C 0.605469 -5.386719 0.675781 -5.671875 0.816406 -5.933594 C 0.957031 -6.195312 1.148438 -6.414062 1.394531 -6.589844 C 1.574219 -6.722656 1.824219 -6.835938 2.140625 -6.929688 C 2.453125 -7.023438 2.789062 -7.070312 3.152344 -7.070312 C 3.695312 -7.070312 4.171875 -6.992188 4.578125 -6.835938 C 4.988281 -6.679688 5.292969 -6.46875 5.488281 -6.199219 C 5.683594 -5.933594 5.816406 -5.578125 5.890625 -5.128906 L 4.746094 -4.972656 C 4.695312 -5.328125 4.542969 -5.609375 4.292969 -5.808594 C 4.042969 -6.007812 3.691406 -6.105469 3.234375 -6.105469 C 2.699219 -6.105469 2.3125 -6.019531 2.082031 -5.839844 C 1.851562 -5.660156 1.738281 -5.453125 1.738281 -5.214844 C 1.738281 -5.0625 1.785156 -4.925781 1.882812 -4.804688 C 1.976562 -4.679688 2.125 -4.574219 2.332031 -4.492188 C 2.449219 -4.449219 2.792969 -4.347656 3.367188 -4.191406 C 4.195312 -3.972656 4.773438 -3.789062 5.101562 -3.648438 C 5.429688 -3.507812 5.6875 -3.304688 5.871094 -3.035156 C 6.058594 -2.765625 6.152344 -2.429688 6.152344 -2.03125 C 6.152344 -1.640625 6.039062 -1.273438 5.808594 -0.925781 C 5.582031 -0.582031 5.253906 -0.316406 4.824219 -0.125 C 4.394531 0.0625 3.910156 0.15625 3.367188 0.15625 C 2.46875 0.15625 1.78125 -0.03125 1.3125 -0.402344 C 0.839844 -0.777344 0.539062 -1.332031 0.410156 -2.0625 Z "/>
</g>
<g id="glyph-0-6">
<path d="M 5.285156 2.648438 L 5.285156 -0.734375 C 5.105469 -0.480469 4.847656 -0.265625 4.523438 -0.0976562 C 4.195312 0.0703125 3.84375 0.15625 3.476562 0.15625 C 2.65625 0.15625 1.949219 -0.171875 1.355469 -0.828125 C 0.765625 -1.480469 0.46875 -2.378906 0.46875 -3.523438 C 0.46875 -4.214844 0.589844 -4.839844 0.828125 -5.390625 C 1.070312 -5.941406 1.421875 -6.359375 1.878906 -6.644531 C 2.335938 -6.929688 2.839844 -7.070312 3.386719 -7.070312 C 4.242188 -7.070312 4.914062 -6.710938 5.402344 -5.988281 L 5.402344 -6.914062 L 6.457031 -6.914062 L 6.457031 2.648438 L 5.285156 2.648438 M 1.671875 -3.476562 C 1.671875 -2.585938 1.859375 -1.917969 2.234375 -1.472656 C 2.605469 -1.03125 3.054688 -0.808594 3.574219 -0.808594 C 4.074219 -0.808594 4.503906 -1.019531 4.863281 -1.441406 C 5.222656 -1.863281 5.402344 -2.507812 5.402344 -3.371094 C 5.402344 -4.292969 5.214844 -4.984375 4.835938 -5.449219 C 4.453125 -5.914062 4.007812 -6.144531 3.496094 -6.144531 C 2.988281 -6.144531 2.558594 -5.929688 2.203125 -5.496094 C 1.851562 -5.066406 1.671875 -4.390625 1.671875 -3.476562 Z "/>
</g>
<g id="glyph-0-7">
<path d="M 0.867188 0 L 0.867188 -6.914062 L 1.921875 -6.914062 L 1.921875 -5.867188 C 2.191406 -6.355469 2.4375 -6.679688 2.664062 -6.835938 C 2.894531 -6.992188 3.144531 -7.070312 3.417969 -7.070312 C 3.8125 -7.070312 4.214844 -6.945312 4.621094 -6.691406 L 4.21875 -5.605469 C 3.933594 -5.773438 3.644531 -5.859375 3.359375 -5.859375 C 3.101562 -5.859375 2.875 -5.78125 2.667969 -5.628906 C 2.464844 -5.472656 2.320312 -5.261719 2.234375 -4.988281 C 2.101562 -4.570312 2.039062 -4.113281 2.039062 -3.621094 L 2.039062 0 Z "/>
</g>
<g id="glyph-0-8">
<path d="M 3.4375 -1.046875 L 3.605469 -0.0117188 C 3.277344 0.0546875 2.980469 0.0898438 2.722656 0.0898438 C 2.296875 0.0898438 1.964844 0.0234375 1.730469 -0.109375 C 1.496094 -0.246094 1.332031 -0.421875 1.238281 -0.640625 C 1.140625 -0.859375 1.09375 -1.320312 1.09375 -2.023438 L 1.09375 -6.003906 L 0.234375 -6.003906 L 0.234375 -6.914062 L 1.09375 -6.914062 L 1.09375 -8.625 L 2.257812 -9.328125 L 2.257812 -6.914062 L 3.4375 -6.914062 L 3.4375 -6.003906 L 2.257812 -6.003906 L 2.257812 -1.960938 C 2.257812 -1.625 2.28125 -1.410156 2.320312 -1.316406 C 2.363281 -1.21875 2.429688 -1.144531 2.523438 -1.085938 C 2.617188 -1.03125 2.75 -1.003906 2.921875 -1.003906 C 3.054688 -1.003906 3.226562 -1.019531 3.4375 -1.046875 Z "/>
</g>
<g id="glyph-0-9">
<path d="M 3.117188 2.804688 C 2.472656 1.988281 1.925781 1.035156 1.476562 -0.0585938 C 1.03125 -1.152344 0.808594 -2.285156 0.808594 -3.457031 C 0.808594 -4.488281 0.972656 -5.480469 1.308594 -6.425781 C 1.699219 -7.523438 2.300781 -8.617188 3.117188 -9.707031 L 3.957031 -9.707031 C 3.433594 -8.804688 3.085938 -8.160156 2.917969 -7.773438 C 2.652344 -7.175781 2.445312 -6.550781 2.292969 -5.898438 C 2.105469 -5.085938 2.011719 -4.269531 2.011719 -3.449219 C 2.011719 -1.363281 2.660156 0.722656 3.957031 2.804688 Z "/>
</g>
<g id="glyph-0-10">
<path d="M 5.390625 -0.851562 C 4.957031 -0.484375 4.539062 -0.222656 4.136719 -0.0703125 C 3.734375 0.0820312 3.304688 0.15625 2.84375 0.15625 C 2.085938 0.15625 1.5 -0.03125 1.09375 -0.398438 C 0.6875 -0.769531 0.480469 -1.246094 0.480469 -1.824219 C 0.480469 -2.160156 0.558594 -2.46875 0.710938 -2.75 C 0.867188 -3.03125 1.070312 -3.253906 1.316406 -3.425781 C 1.566406 -3.59375 1.847656 -3.722656 2.160156 -3.808594 C 2.390625 -3.871094 2.738281 -3.929688 3.203125 -3.984375 C 4.148438 -4.097656 4.847656 -4.230469 5.292969 -4.386719 C 5.296875 -4.546875 5.300781 -4.652344 5.300781 -4.695312 C 5.300781 -5.171875 5.1875 -5.507812 4.96875 -5.703125 C 4.667969 -5.96875 4.222656 -6.101562 3.632812 -6.101562 C 3.082031 -6.101562 2.675781 -6.003906 2.414062 -5.808594 C 2.148438 -5.617188 1.957031 -5.277344 1.828125 -4.785156 L 0.683594 -4.941406 C 0.789062 -5.433594 0.960938 -5.828125 1.199219 -6.128906 C 1.4375 -6.429688 1.78125 -6.664062 2.234375 -6.824219 C 2.683594 -6.988281 3.207031 -7.070312 3.800781 -7.070312 C 4.390625 -7.070312 4.871094 -7 5.242188 -6.863281 C 5.609375 -6.722656 5.882812 -6.546875 6.054688 -6.335938 C 6.226562 -6.128906 6.351562 -5.863281 6.417969 -5.539062 C 6.457031 -5.339844 6.476562 -4.980469 6.476562 -4.460938 L 6.476562 -2.898438 C 6.476562 -1.808594 6.503906 -1.117188 6.550781 -0.828125 C 6.601562 -0.542969 6.703125 -0.265625 6.847656 0 L 5.625 0 C 5.503906 -0.242188 5.425781 -0.527344 5.390625 -0.851562 M 5.292969 -3.46875 C 4.867188 -3.296875 4.230469 -3.148438 3.378906 -3.027344 C 2.898438 -2.957031 2.554688 -2.878906 2.355469 -2.792969 C 2.15625 -2.707031 2.003906 -2.578125 1.894531 -2.414062 C 1.785156 -2.246094 1.730469 -2.058594 1.730469 -1.855469 C 1.730469 -1.542969 1.851562 -1.28125 2.085938 -1.074219 C 2.324219 -0.867188 2.667969 -0.761719 3.125 -0.761719 C 3.578125 -0.761719 3.976562 -0.859375 4.328125 -1.058594 C 4.679688 -1.253906 4.9375 -1.527344 5.105469 -1.867188 C 5.230469 -2.132812 5.292969 -2.523438 5.292969 -3.039062 Z "/>
</g>
<g id="glyph-0-11">
<path d="M 0.421875 -2.863281 L 0.421875 -4.042969 L 4.023438 -4.042969 L 4.023438 -2.863281 Z "/>
</g>
<g id="glyph-0-12">
<path d="M 7.453125 -9.542969 L 7.453125 -8.417969 L 2.332031 -8.417969 L 5.585938 -4.953125 L 2.332031 -1.125 L 7.722656 -1.125 L 7.722656 0 L 0.964844 0 L 0.964844 -1.316406 L 4.082031 -4.953125 L 0.964844 -8.273438 L 0.964844 -9.542969 Z "/>
</g>
<g id="glyph-0-13">
<path d="M 0.886719 0 L 0.886719 -9.542969 L 2.058594 -9.542969 L 2.058594 -4.101562 L 4.832031 -6.914062 L 6.347656 -6.914062 L 3.703125 -4.347656 L 6.613281 0 L 5.167969 0 L 2.882812 -3.535156 L 2.058594 -2.742188 L 2.058594 0 Z "/>
</g>
<g id="glyph-0-14">
<path d="M 0.164062 -4.773438 C 0.1875 -5.019531 0.289062 -5.265625 0.46875 -5.515625 C 0.742188 -5.886719 1.191406 -6.300781 1.816406 -6.753906 C 2.441406 -7.207031 2.8125 -7.5 2.929688 -7.628906 C 3.089844 -7.808594 3.171875 -7.992188 3.171875 -8.175781 C 3.171875 -8.386719 3.09375 -8.558594 2.941406 -8.691406 C 2.789062 -8.824219 2.566406 -8.894531 2.273438 -8.894531 C 1.984375 -8.894531 1.773438 -8.84375 1.628906 -8.742188 C 1.488281 -8.636719 1.375 -8.441406 1.28125 -8.152344 L 0.300781 -8.253906 C 0.425781 -8.738281 0.644531 -9.09375 0.953125 -9.320312 C 1.265625 -9.546875 1.710938 -9.660156 2.292969 -9.660156 C 2.945312 -9.660156 3.425781 -9.535156 3.734375 -9.277344 C 4.039062 -9.019531 4.191406 -8.707031 4.191406 -8.339844 C 4.191406 -7.976562 4.066406 -7.628906 3.808594 -7.304688 C 3.613281 -7.0625 3.167969 -6.691406 2.472656 -6.191406 C 2.113281 -5.925781 1.859375 -5.714844 1.707031 -5.558594 L 4.21875 -5.558594 L 4.21875 -4.773438 Z "/>
</g>
<g id="glyph-0-15">
<path d="M 1.648438 2.804688 L 0.808594 2.804688 C 2.105469 0.722656 2.753906 -1.363281 2.753906 -3.449219 C 2.753906 -4.265625 2.660156 -5.074219 2.472656 -5.878906 C 2.328125 -6.53125 2.121094 -7.15625 1.855469 -7.753906 C 1.6875 -8.144531 1.335938 -8.796875 0.808594 -9.707031 L 1.648438 -9.707031 C 2.464844 -8.617188 3.066406 -7.523438 3.457031 -6.425781 C 3.792969 -5.480469 3.957031 -4.488281 3.957031 -3.457031 C 3.957031 -2.285156 3.734375 -1.152344 3.285156 -0.0585938 C 2.835938 1.035156 2.289062 1.988281 1.648438 2.804688 Z "/>
</g>
<g id="glyph-0-16">
<path d="M 1.222656 2.804688 L 1.222656 -9.707031 L 2.246094 -9.707031 L 2.246094 2.804688 Z "/>
</g>
<g id="glyph-0-17">
<path d="M 0.886719 -8.195312 L 0.886719 -9.542969 L 2.058594 -9.542969 L 2.058594 -8.195312 L 0.886719 -8.195312 M 0.886719 0 L 0.886719 -6.914062 L 2.058594 -6.914062 L 2.058594 0 Z "/>
</g>
<g id="glyph-0-18">
<path d="M 0.417969 -7.792969 L 0.714844 -8.71875 C 1.40625 -8.472656 1.90625 -8.265625 2.21875 -8.085938 C 2.136719 -8.871094 2.09375 -9.410156 2.089844 -9.707031 L 3.035156 -9.707031 C 3.019531 -9.277344 2.972656 -8.738281 2.882812 -8.09375 C 3.332031 -8.316406 3.84375 -8.527344 4.421875 -8.71875 L 4.71875 -7.792969 C 4.167969 -7.609375 3.628906 -7.488281 3.097656 -7.429688 C 3.363281 -7.199219 3.738281 -6.789062 4.21875 -6.199219 L 3.4375 -5.644531 C 3.1875 -5.988281 2.886719 -6.453125 2.546875 -7.042969 C 2.222656 -6.433594 1.941406 -5.964844 1.699219 -5.644531 L 0.929688 -6.199219 C 1.433594 -6.820312 1.792969 -7.230469 2.011719 -7.429688 C 1.453125 -7.535156 0.921875 -7.660156 0.417969 -7.792969 Z "/>
</g>
<g id="glyph-0-19">
<path d="M 0 0.164062 L 2.765625 -9.707031 L 3.703125 -9.707031 L 0.945312 0.164062 Z "/>
</g>
</g>
</defs>
<g fill="rgb(100%, 100%, 100%)" fill-opacity="1">
<use xlink:href="#glyph-0-0" x="30" y="32.070312"/>
<use xlink:href="#glyph-0-1" x="33" y="32.070312"/>
<use xlink:href="#glyph-0-2" x="40" y="32.070312"/>
<use xlink:href="#glyph-0-2" x="43" y="32.070312"/>
<use xlink:href="#glyph-0-3" x="46" y="32.070312"/>
<use xlink:href="#glyph-0-4" x="50" y="32.070312"/>
<use xlink:href="#glyph-0-3" x="58" y="32.070312"/>
<use xlink:href="#glyph-0-5" x="62" y="32.070312"/>
<use xlink:href="#glyph-0-6" x="69" y="32.070312"/>
<use xlink:href="#glyph-0-7" x="76" y="32.070312"/>
<use xlink:href="#glyph-0-8" x="80" y="32.070312"/>
<use xlink:href="#glyph-0-9" x="84" y="32.070312"/>
<use xlink:href="#glyph-0-10" x="88" y="32.070312"/>
<use xlink:href="#glyph-0-1" x="95" y="32.070312"/>
<use xlink:href="#glyph-0-2" x="102" y="32.070312"/>
<use xlink:href="#glyph-0-2" x="105" y="32.070312"/>
<use xlink:href="#glyph-0-3" x="108" y="32.070312"/>
<use xlink:href="#glyph-0-11" x="112" y="32.070312"/>
<use xlink:href="#glyph-0-3" x="116" y="32.070312"/>
</g>
<g fill="rgb(100%, 100%, 100%)" fill-opacity="1">
<use xlink:href="#glyph-0-12" x="120" y="32.070312"/>
</g>
<g fill="rgb(100%, 100%, 100%)" fill-opacity="1">
<use xlink:href="#glyph-0-0" x="128" y="32.070312"/>
<use xlink:href="#glyph-0-1" x="131" y="32.070312"/>
<use xlink:href="#glyph-0-2" x="138" y="32.070312"/>
<use xlink:href="#glyph-0-13" x="141" y="32.070312"/>
<use xlink:href="#glyph-0-14" x="148" y="32.070312"/>
<use xlink:href="#glyph-0-15" x="152" y="32.070312"/>
<use xlink:href="#glyph-0-3" x="156" y="32.070312"/>
<use xlink:href="#glyph-0-3" x="160" y="32.070312"/>
<use xlink:href="#glyph-0-16" x="164" y="32.070312"/>
<use xlink:href="#glyph-0-3" x="167" y="32.070312"/>
<use xlink:href="#glyph-0-3" x="171" y="32.070312"/>
<use xlink:href="#glyph-0-0" x="175" y="32.070312"/>
<use xlink:href="#glyph-0-1" x="178" y="32.070312"/>
<use xlink:href="#glyph-0-17" x="185" y="32.070312"/>
<use xlink:href="#glyph-0-2" x="188" y="32.070312"/>
<use xlink:href="#glyph-0-3" x="191" y="32.070312"/>
<use xlink:href="#glyph-0-4" x="195" y="32.070312"/>
<use xlink:href="#glyph-0-3" x="203" y="32.070312"/>
<use xlink:href="#glyph-0-9" x="207" y="32.070312"/>
<use xlink:href="#glyph-0-10" x="211" y="32.070312"/>
<use xlink:href="#glyph-0-1" x="218" y="32.070312"/>
<use xlink:href="#glyph-0-17" x="225" y="32.070312"/>
<use xlink:href="#glyph-0-2" x="228" y="32.070312"/>
<use xlink:href="#glyph-0-3" x="231" y="32.070312"/>
<use xlink:href="#glyph-0-11" x="235" y="32.070312"/>
<use xlink:href="#glyph-0-3" x="239" y="32.070312"/>
</g>
<g fill="rgb(100%, 100%, 100%)" fill-opacity="1">
<use xlink:href="#glyph-0-12" x="243" y="32.070312"/>
</g>
<g fill="rgb(100%, 100%, 100%)" fill-opacity="1">
<use xlink:href="#glyph-0-0" x="251" y="32.070312"/>
<use xlink:href="#glyph-0-1" x="254" y="32.070312"/>
<use xlink:href="#glyph-0-17" x="261" y="32.070312"/>
<use xlink:href="#glyph-0-13" x="264" y="32.070312"/>
<use xlink:href="#glyph-0-18" x="271" y="32.070312"/>
<use xlink:href="#glyph-0-0" x="276" y="32.070312"/>
<use xlink:href="#glyph-0-1" x="279" y="32.070312"/>
<use xlink:href="#glyph-0-2" x="286" y="32.070312"/>
<use xlink:href="#glyph-0-13" x="289" y="32.070312"/>
<use xlink:href="#glyph-0-15" x="296" y="32.070312"/>
<use xlink:href="#glyph-0-19" x="300" y="32.070312"/>
<use xlink:href="#glyph-0-0" x="304" y="32.070312"/>
<use xlink:href="#glyph-0-1" x="307" y="32.070312"/>
<use xlink:href="#glyph-0-2" x="314" y="32.070312"/>
<use xlink:href="#glyph-0-2" x="317" y="32.070312"/>
</g>
</svg>
