<?xml version="1.0" encoding="UTF-8"?>
<svg xmlns="http://www.w3.org/2000/svg" xmlns:xlink="http://www.w3.org/1999/xlink" width="854" height="480" viewBox="0 0 854 480">
<defs>
<g>
<g id="glyph-0-0">
<path d="M 3.328125 -8.769531 C 3.09375 -8.769531 2.859375 -8.742188 2.625 -8.683594 C 2.390625 -8.628906 2.160156 -8.554688 1.933594 -8.464844 C 1.726562 -8.375 1.542969 -8.285156 1.390625 -8.191406 C 1.234375 -8.09375 1.097656 -8.003906 0.976562 -7.921875 L 0.898438 -7.921875 L 0.898438 -9.296875 C 1.179688 -9.449219 1.5625 -9.585938 2.046875 -9.710938 C 2.53125 -9.835938 2.992188 -9.894531 3.429688 -9.894531 C 3.871094 -9.894531 4.253906 -9.851562 4.578125 -9.761719 C 4.90625 -9.671875 5.203125 -9.535156 5.46875 -9.347656 C 5.753906 -9.140625 5.972656 -8.890625 6.117188 -8.59375 C 6.261719 -8.296875 6.335938 -7.953125 6.335938 -7.558594 C 6.335938 -7.023438 6.160156 -6.554688 5.808594 -6.152344 C 5.457031 -5.75 5.035156 -5.492188 4.542969 -5.382812 L 4.542969 -5.292969 C 4.75 -5.253906 4.964844 -5.1875 5.199219 -5.089844 C 5.429688 -4.996094 5.648438 -4.855469 5.847656 -4.667969 C 6.046875 -4.480469 6.207031 -4.242188 6.335938 -3.949219 C 6.460938 -3.65625 6.523438 -3.296875 6.523438 -2.878906 C 6.523438 -2.4375 6.449219 -2.035156 6.296875 -1.667969 C 6.148438 -1.304688 5.9375 -0.980469 5.664062 -0.695312 C 5.382812 -0.402344 5.042969 -0.179688 4.640625 -0.0273438 C 4.242188 0.125 3.789062 0.203125 3.28125 0.203125 C 2.796875 0.203125 2.3125 0.144531 1.835938 0.0273438 C 1.359375 -0.0898438 0.957031 -0.230469 0.632812 -0.398438 L 0.632812 -1.769531 L 0.722656 -1.769531 C 0.996094 -1.570312 1.363281 -1.378906 1.824219 -1.199219 C 2.28125 -1.015625 2.742188 -0.925781 3.203125 -0.925781 C 3.46875 -0.925781 3.734375 -0.964844 4 -1.050781 C 4.265625 -1.136719 4.488281 -1.273438 4.667969 -1.464844 C 4.839844 -1.65625 4.972656 -1.867188 5.066406 -2.097656 C 5.15625 -2.328125 5.203125 -2.617188 5.203125 -2.96875 C 5.203125 -3.320312 5.152344 -3.609375 5.046875 -3.835938 C 4.945312 -4.058594 4.804688 -4.238281 4.621094 -4.367188 C 4.441406 -4.5 4.222656 -4.589844 3.972656 -4.640625 C 3.726562 -4.6875 3.453125 -4.714844 3.164062 -4.714844 L 2.609375 -4.714844 L 2.609375 -5.792969 L 3.039062 -5.792969 C 3.625 -5.792969 4.101562 -5.933594 4.46875 -6.210938 C 4.835938 -6.488281 5.019531 -6.890625 5.019531 -7.421875 C 5.019531 -7.664062 4.972656 -7.875 4.875 -8.050781 C 4.78125 -8.226562 4.660156 -8.367188 4.511719 -8.46875 C 4.347656 -8.582031 4.164062 -8.660156 3.964844 -8.703125 C 3.765625 -8.746094 3.550781 -8.769531 3.328125 -8.769531 Z "/>
</g>
<g id="glyph-0-1">
<path d="M 6.796875 -8.242188 L 2.605469 0 L 1.21875 0 L 5.65625 -8.554688 L 0.644531 -8.554688 L 0.644531 -9.695312 L 6.796875 -9.695312 Z "/>
</g>
</g>
</defs>
<g fill="rgb(100%, 100%, 100%)" fill-opacity="1">
<use xlink:href="#glyph-0-0" x="30" y="33.339844"/>
<use xlink:href="#glyph-0-1" x="37" y="33.339844"/>
</g>
</svg>
